<svg width="545" height="160" fill="none" xmlns="http://www.w3.org/2000/svg">
  <g clip-path="url(#clip0)" fill="#2494CC">
    <path d="M146.6 106.3a15 15 0 00-9.2-14 14.8 14.8 0 00-20.3 11 15 15 0 006.3 15.4 14.8 14.8 0 0023.2-12.5zm-24.9 0A10 10 0 01128 97a9.9 9.9 0 0113.5 7.3 10 10 0 01-4.2 10.3 9.9 9.9 0 01-15.5-8.3zM67.1 43.8a14.8 14.8 0 0013.7-9.3A15 15 0 0070 14a14.8 14.8 0 00-15.3 6.4A15 15 0 0067 43.8zm0-25a9.9 9.9 0 019.2 6.1A10 10 0 0169 38.6a9.9 9.9 0 01-10.2-4.3 10 10 0 018.3-15.5zM27.6 122.3c-1.3-.7-2.6-1-4-1-4.5 0-9 3.2-11.2 8.7-2.8 7.1-.7 15 4.7 17.9 1.3.6 2.6.9 4 .8 4.5 0 9-3.2 11.2-8.7 2.9-7 .7-15-4.7-17.8zm0 15.8c-1.3 3.4-4 5.7-6.5 5.7-.6 0-1.2-.2-1.7-.4-3.1-1.7-4.2-7-2.4-11.5 1.4-3.4 4.1-5.7 6.6-5.7.6 0 1.2.2 1.7.4 3.1 1.7 4.3 7 2.4 11.5h-.1zM53.7 98.2c1-.8 1.3-2.4.5-3.5a2.5 2.5 0 00-3.5-.4 2.5 2.5 0 00-.5 3.5 2.5 2.5 0 003.5.4z"/>
    <path d="M147.8 49.3V36.8C154.5 33 159 27 159 20c0-11-11.2-20-24.8-20-13.7 0-24.9 9-24.9 20 0 7 4.5 13.1 11.2 16.6V39c-4.5-2.4-9.6-3.1-14.5-2.1C97.4 38.5 92 45 89 50c-4.5 7.4-7.9 10.3-16.7 7.8a81.7 81.7 0 01-9.4-4c-11-5.2-24.6-11.4-33.6-7.3-1.6.8-3 2-4 3.5-2 0-4 .5-5.8 1.3a3.7 3.7 0 00-2.2 2.5A4 4 0 0018 57L34 79l-22.6-6.3a4 4 0 00-3.2.4 4 4 0 00-1.7 2.6c-1.8 10.7 9 16.9 9.5 17h.3L41 103.1l1.2.7-4 6.2-.2.4-.6.6-2.2.6-1.3-.1c-9.6-5-18.6-3.5-26.4 4.5-6 6.3-8.7 16.1-7 25.4 1.5 7.8 6 13.7 12.7 16.7a21.4 21.4 0 0016.1.5A27 27 0 0043 143.5l11.2-26 .3.8c6 14.2 10.5 23.5 13.3 27.5a23 23 0 0016.4 9.2h2.1c5.7 0 11.2-2.1 15.3-6 8.3-7.9 7.8-23.5 2.1-32.5-5.7-9-18-15.8-27.8-10.8-1.3.7-2.4 1.6-3.5 2.5-4-8.7-10.5-21.8-13.6-25l-.5-.6a49 49 0 0015.5-5.5c5.2-2.6 10-4.7 14-3 1 .4 1.5.9 1.6 1.3.5 1.6-1.8 5.3-3.7 8.1-2.7 4.3-5.3 8.3-4 11.9a6.9 6.9 0 005 4c1.4.4 2.8.6 4.2.6 2.2 0 4.4-.3 6.5-.9a2.5 2.5 0 001.9-3 2.5 2.5 0 00-3-1.8 17 17 0 01-8.2.3c-1-.2-1.6-.6-1.6-1-.5-1.2 1.8-5 3.4-7.5 2.6-4 5.5-8.3 4.3-12.2a7.1 7.1 0 00-4.5-4.4c-6.6-2.8-13.3.6-18.2 3.1A42.2 42.2 0 0154.8 78L40.4 58a20.1 20.1 0 00-8.7-7c6.8-3 19.7 2.9 29.2 7.3a84 84 0 0010 4.2c2.2.7 4.5 1.1 6.9 1.1 7.2 0 11.4-4.2 15.4-11 2.4-4.2 7-9.6 13.9-11.2 5-1 10 1 13.4 3v4.8c-6.7 3.2-11.2 8.7-11.2 15 0 10 11.2 18.2 24.9 18.2 13.6 0 24.8-8.1 24.8-18.1 0-6.3-4.5-11.9-11.2-15v-.1zM38.3 141.4a21.2 21.2 0 01-11 12.5 15.2 15.2 0 01-12.1-.5 17.2 17.2 0 01-9.9-13.1c-1.3-7.5 1-15.9 5.8-20.9 6.2-6.4 12.9-7.5 20.6-3.6a7 7 0 005 .6l2.2-.8c1.6-.5 3-1.7 3.7-3.2l3.7-5.9c2 1.6 3.6 3.5 5 5.5l-13 29.4zm30.4-29.8a3.7 3.7 0 004.3 2.1c.6-.1 1.1-.4 1.5-.8 1.2-1 2.4-2 3.8-2.8 7-3.7 17 1.7 21.4 8.8 4.5 7.1 5 20.3-1.3 26.3a17.4 17.4 0 01-13.7 4.6 18 18 0 01-12.8-7.3c-1.8-2.5-5.4-9-12.6-26.3l-.4-1c-.3-.4-5.2-12-16-16.8L18.4 88.1c-.8-.6-7.1-4.3-7.1-10.3l47 13.3c2.5 4.5 6.4 11.9 10.5 20.7zM36.4 61.3l17.3 23.5-12-3.3L23 55.6c3.2-1 8.5-1 13.5 5.6zm106.5-7.7a24.5 24.5 0 01-17.4 0v-4.8a28.8 28.8 0 0017.4 0v4.8zm-17.4 5.3a28.8 28.8 0 0017.4 0v4.7a24.3 24.3 0 01-17.4 0v-4.8zM114.3 20c0-8.3 9-15 19.9-15C145 5 154 11.8 154 20c0 8.3-9 15-19.8 15-11 0-20-6.8-20-15zm19.9 20c2.9 0 5.8-.4 8.7-1.3v4.7a24.5 24.5 0 01-17.4 0v-4.6a30 30 0 008.7 1.2zm0 37.5c-11 0-20-5.9-20-13.1 0-3.8 2.6-7.2 6.3-9.5V65a2.5 2.5 0 001.4 2.3 28.8 28.8 0 0024.6 0 2.5 2.5 0 001.3-2.3V54.9c3.7 2.4 6.2 5.7 6.2 9.5 0 7.2-9 13.1-19.8 13.1z"/>
    <path d="M145.3 20c0-5-5-8.8-11.1-8.8-6.3 0-11.2 3.8-11.2 8.8 0 5 5 8.8 11.2 8.8 6.2 0 11.1-3.8 11.1-8.8zM128 20c0-1.8 2.5-3.8 6.3-3.8 3.7 0 6.2 2 6.2 3.8 0 1.8-2.5 3.8-6.2 3.8-3.8 0-6.3-2-6.3-3.8zM87.3 145c2 0 4-.7 5.5-2 4.7-3.9 5.5-12.4 1.6-18.8-2.6-4.3-6.6-6.7-10.3-6.7-2 0-4 .7-5.5 2-4.7 3.9-5.4 12.4-1.6 18.8 2.6 4.3 6.6 6.7 10.3 6.7zm-5.6-21.6c.7-.6 1.6-1 2.5-.9 2 0 4.4 1.6 6 4.3 2.7 4.7 2 10.3-.5 12.5-.7.5-1.6.8-2.5.7-2 0-4.3-1.6-5.8-4.3-2.9-4.7-2.1-10.3.3-12.4zM131.7 108.8c1.3 0 2.5-1.2 2.5-2.5 0-1.4-1.2-2.5-2.5-2.5a2.5 2.5 0 00-2.5 2.5c0 1.3 1.1 2.5 2.5 2.5zM67 31.3c1.5 0 2.6-1.2 2.6-2.6 0-1.3-1.1-2.4-2.5-2.4a2.5 2.5 0 00-2.5 2.4c0 1.4 1.1 2.6 2.5 2.6zM38.5 20c1.4 0 2.5-1.1 2.5-2.5S39.9 15 38.5 15a2.5 2.5 0 00-2.5 2.5c0 1.4 1.1 2.5 2.5 2.5zM10 43.8c1.3 0 2.4-1.2 2.4-2.5 0-1.4-1-2.5-2.5-2.5a2.5 2.5 0 00-2.4 2.5c0 1.3 1 2.5 2.4 2.5zM156.5 127.5c1.4 0 2.5-1.1 2.5-2.5s-1.1-2.5-2.5-2.5a2.5 2.5 0 00-2.5 2.5c0 1.4 1.1 2.5 2.5 2.5zM2.2 17.9l5.6.6 2.6 5.1a2.5 2.5 0 002.3 1.4 2.5 2.5 0 002.3-1.5l2.3-5.4 5.6-1.1a2.5 2.5 0 001.9-1.7 2.5 2.5 0 00-.7-2.5l-4.2-4 .7-6a2.5 2.5 0 00-1-2.5 2.5 2.5 0 00-2.7 0l-5 3L7 .8a2.5 2.5 0 00-3.3 1.4c-.2.4-.2.8-.1 1.3l1.1 5.9-4 4.2a2.5 2.5 0 001.6 4.2zm6.9-6.1a2.5 2.5 0 00.6-2.2l-.4-2.1 1.8.9a2.5 2.5 0 002.3 0L15 7.3l-.2 2a2.5 2.5 0 00.7 2.2l1.6 1.5-2 .4a2.5 2.5 0 00-1.8 1.5l-.8 1.7-1-1.6a2.5 2.5 0 00-1.8-1.4l-2.2-.2L9 11.8zm134.4 126l.6-5a2.5 2.5 0 00-1-2.4 2.5 2.5 0 00-2.7 0l-4.1 2.5-4.3-2.1a2.5 2.5 0 00-3.5 1.3c-.1.4-.2 1 0 1.4l1 5-3.4 3.6a2.5 2.5 0 001.6 4.2l4.7.6 2.3 4.4a2.5 2.5 0 002.2 1.2 2.5 2.5 0 002.2-1.4l2-4.6 4.7-.9a2.5 2.5 0 002-1.7 2.5 2.5 0 00-.7-2.5l-3.6-3.5zm-4.6 4a2.5 2.5 0 00-1.8 1.5l-.5 1-.5-1a2.5 2.5 0 00-1.8-1.3l-1.3-.2 1-1a2.5 2.5 0 00.5-2.2l-.2-1.2 1 .5a2.5 2.5 0 002.3 0l.9-.6-.1 1.2a2.5 2.5 0 00.7 2.1l.9.9-1.1.3z"/>
  </g>
  <g clip-path="url(#clip1)">
    <path d="M170.8 159.3h5.1c.5 0 .9-.8.9-2.4l1.5-44v-.2c0-.2 0 0 0 0l7.8 44.6c.3 1.3.6 2 1.3 2h2.9c.7 0 1.2-.7 1.5-2l7.8-44.8s0-.1.2 0l1.5 44.6c0 1.7.3 2.4 1 2.4h4.7c.9 0 1.2-.7 1.2-2v-.4l-2-57.3c0-1.5-.3-2.3-1-2.3h-7c-.8 0-1.3.8-1.6 2.2l-7.3 40.6v.2h-.4l-.1-.2-7.3-40.8c0-.9-.3-1.4-.7-1.7-.3-.2-.6-.3-1-.3H173c-.8 0-1.1.8-1.1 2.5l-1.9 57v.1c0 1.5.3 2.2 1 2.2h-.2zm44.5 0h5.4c.4 0 .7 0 .9-.3 0-.4.3-.7.3-1.5l1.9-10.9c0-.7.3-1 .5-1h10.3c.4 0 .5.3.5 1l1.7 11c0 1.2.7 1.7 1.4 1.7h7c.6 0 .7-.3.7-1.2v-1l-.1-.5-9.5-57.1c-.3-1.4-.8-2.2-1.7-2.2H226c-.9 0-1.4.8-1.7 2.2l-9.5 57.1v1.5c0 .7.2 1.2.7 1.2h-.2zm10.2-19.1c-.4 0-.5-.2-.5-.9v-.3l5-33.2v-.4l.2.4 4.2 33.2.2.5c0 .5 0 .7-.3.7h-8.8zm28.4 19.1h6.3c.3 0 .6 0 .8-.3l.2-1.7v-25c0-.6.1-1 .5-1h6l2.3.2 1.7.7 1.6 1.7.7 3 .5 10.9.4 9.7c0 1.1.1 1.8.6 1.8h6.8c.5 0 .9-.7.9-2.2-.1-7.2-.4-14.5-.9-21.7-.3-1.7-.8-3-1.5-4l-2-2.3-2.4-1.5-.2-.1v-.4a8 8 0 002.7-1.3c.9-.7 1.6-1.4 2-2.4.7-1 1.2-2.4 1.6-4 .8-4.2.7-8.7-.4-13-.4-1.6-1-3.3-2-4.7-.8-1.3-2-2.3-3.4-2.9-1.2-.5-2.5-1-3.9-1.2l-4.5-.3h-14.6c-.3 0-.5 0-.6.3l-.4 1.7v58.2c0 .6 0 1.1.4 1.5l.6.3h.2zm7.8-34.7c-.4 0-.5-.4-.5-1v-18.7c0-.5.1-.7.5-.7h4.2c3 0 5 .7 6.6 2.2 1.2 1.4 1.9 4.1 1.9 7.8 0 6.8-2.4 10.4-7.1 10.4h-5.6zm32 34.7h6.2c.7 0 1.2-.7 1.2-2.2V130l11.3 27.1c.5 1.5 1.2 2.2 2 2.2h6.3c.3 0 .5-.3.5-1l-.2-1.4-11.1-28-.2-1.3c0-.3 0-.8.4-1.5l10.3-26.6.3-1.2c0-.7-.3-1-.8-1h-6.5c-.8 0-1.3.7-1.8 2.2L300.9 128V99.7c0-1.7-.3-2.4-1-2.4h-6.3c-.6 0-1.1.8-1.1 2.4v57.2c0 1.7.5 2.4 1.1 2.4zm35 0h22.8c.3 0 .5 0 .8-.3l.2-1.4V153l-.7-.5H336V132c.2-.4.4-.4.5-.4h11.9c.5 0 1-.7 1-2V126c0-1.4-.5-1.9-1.2-1.9h-11.8l-.2-.5-.2-.7v-17.4c0-1 0-1.4.5-1.4h14.8c.3 0 .6-.1.8-.5l.2-1.3v-4.6l-.5-.5h-23c-.4 0-.7 0-.9.3l-.2 1.5v58.4l.2 1.7.9.1zm37.5 0h6.3c.3 0 .6 0 .8-.3l.4-1.7V105c0-.7 0-1 .3-1h7.4c.4 0 .7 0 .9-.4l.1-1.3V99l-.1-1.5-.9-.4H357c-.3 0-.7 0-.8.4l-.2 1.6v4.5l.3.5h8.3c.4 0 .5.3.5 1v52c0 .9 0 1.4.4 1.7l.8.4v.1zm23.4 0h6.4c.7 0 1-.7 1-2.2v-18.6c0-.5 0-.7.5-.7h6c1.8 0 3.1 0 4.5-.3a13 13 0 003.9-1.7 8.2 8.2 0 003.4-3.4c.8-1.4 1.7-3.4 2.2-5.8a41.6 41.6 0 00-1-21.2 12 12 0 00-4.6-6c-1-.7-2-1.2-3-1.4-2.3-.6-4.6-.9-6.8-.7h-12.5c-.4 0-.7 0-.9.3l-.2 1.7V157c0 1.7.4 2.4 1 2.4zm7.7-28.5c-.1 0-.3-.1-.3-.8v-25c0-.6 0-.8.3-.8h7.1l2.2 1c.7.6 1.4 1.4 1.7 2.3l1 4a54 54 0 01-.5 15.8c-.3 1-.6 1.7-1.3 2.2l-2 1-3 .3h-5.2zm29.5 28.5H446c.4 0 .7 0 .9-.3l.2-1.4v-3.4l-.2-1.5-.9-.2H435c-.5 0-.7-.3-.7-1V99.3l-.2-1.7-.8-.3h-6.4c-.4 0-.5 0-.7.3l-.3 1.7v58c0 .8 0 1.3.3 1.7l.7.3zm25 0h5.4c.5 0 .7 0 .9-.3l.5-1.5 1.7-10.9c0-.7.3-1 .5-1h10.5c.1 0 .3.3.3 1l1.7 11c.2 1.2.7 1.7 1.3 1.7h7.1c.5 0 .7-.3.7-1.2v-1.5l-9.6-57.1c-.4-1.4-.9-2.2-1.7-2.2h-8.6c-.9 0-1.4.8-1.7 2.2l-9.7 57.1v1.5c0 .7.2 1.2.7 1.2zm10.1-19.1c-.3 0-.5-.2-.5-.9v-.3l5.1-33.2v-.4l.2.4L471 139v.5c0 .5 0 .7-.4.7H462zm43.5 19.8c2.2 0 4.4-.3 6.4-1l.4-.5V153l-.4-.8c-2.8 1-5.8 1-8.7.3a7 7 0 01-2.8-1.7c-1-1.2-1.8-2.6-2.2-4.2-2-12-1.9-24.4.4-36.4.5-1.7 1.3-3.3 2.4-4.3a5 5 0 012.8-1.8 13.2 13.2 0 017.4.2h1l.3.1s.3-.2.3-.5v-5.6l-.2-.3h-.1l-.2-.2a23.6 23.6 0 00-12-.7c-1.5.4-3 1.2-4.8 2.4-1.7 1.3-3 3-4 5.2a47 47 0 00-2.6 9.4 86.3 86.3 0 00.9 33.2 22 22 0 004.9 9.5c.8.8 2 1.5 3.4 2 1 .5 2.2.8 3.4 1h4v.2zm15.6-.7h22.8c.4 0 .7 0 .9-.3l.3-1.4v-3.4l-.2-1.2c0-.3-.3-.5-.3-.5h-16V132c0-.4.3-.4.4-.4h11.9c.6 0 1-.7 1-2V126c0-1.4-.4-1.9-1-1.9h-11.9l-.3-.5v-18.1c0-1 0-1.4.3-1.4h14.7c.6 0 .7-.1.9-.5l.3-1.3V99l-.1-1.2-.4-.5H521c-.4 0-.5 0-.7.3-.3.2-.3.7-.3 1.5v58.4c0 .8 0 1.3.3 1.7l.7.1z" fill="#2494CC"/>
  </g>
  <g clip-path="url(#clip2)">
    <path d="M171.3 81.5h3.6c.4 0 .9 0 1-.4l.3-2.3v-36l.5-.5h24l.4.5v36l.4 2.3 1.1.4h3.6c.4 0 .9 0 1.1-.4l.2-2.3V2.7l-.2-2.3-1.1-.4h-3.6c-.4 0-.8 0-1 .4l-.3 2.3v33.2l-.2.6-.5.5h-24.2v-.5l-.2-.6V2.4l-.2-2-1.3-.4h-3.4c-.6 0-.9 0-1 .4l-.3 2.3V81l1.3.4zm46.4 0h3.1c.7 0 1 0 1.4-.7l.6-2.2 3.1-16.2.5-.5h17.8v.5l2.6 16.2c.5 2 1.1 3 2.2 3h4.3c.4 0 .6-.8.6-1.9v-.4l-.2-.7-13.3-75.3c-.2-2-1-2.9-2-3H233c-1 0-1.6 1-2 3l-14 75v1.4c0 1.1.2 1.8.9 1.8h-.3zm10-24.3c-.4 0-.4 0-.4-.6V56l8-48h.2l7.5 48.5v.4l-15.3.2zm36.4 24.3h3.1c1 0 1.6-1.1 1.6-3.1V16.7L295 79.1l.9 1.5c.4.7.9 1 1.1 1h2.7c.4 0 .6 0 .9-.5l.4-2.3V3c0-1.3 0-2-.4-2.2 0-.5-.5-.7-1-.7h-3c-.7 0-1 0-1.2.4l-.4 2.3V64l-.2.7-26-63.5c-.2-.9-.7-1.3-1.3-1.3H264c-.4 0-.9 0-.9.4l-.4 2.3v75.7c0 2.2.4 3.1 1.3 3.1zm56-5.1c-.5 0-.7-.5-.7-1.1v-69c0-1 0-1.2.7-1.2h11c5.4 0 9.4 2.7 11.9 8.3a76 76 0 013.3 27.1c-.1 8.2-.7 16.4-1.8 24.5-.5 2.4-1.5 4.7-2.9 6.7a8.6 8.6 0 01-4.4 3.6c-1.6.6-3.8 1-6.2 1h-11zm-5.8 5.1H331a28 28 0 008.2-.9c2.2-.6 4.4-2 6.2-3.5 1.8-1.8 3.3-4.3 4.4-7.4a59 59 0 002.3-11.8c1.2-11.2 1.2-22.6 0-33.8-1-4.7-1.8-8.5-3-11.6a21 21 0 00-4.4-7.4 15.5 15.5 0 00-5.7-4c-2.3-.7-4.7-1.1-7.6-1.1h-17l-1 .2-.4 1.6v77.5c0 .9 0 1.5.4 1.8l1 .4zm50.4 0h3.3c.7 0 1.2-1.1 1.2-3.6l2-65.2 12.4 65c.7 2.3 1.3 3.6 2.2 3.6h2.2c1 0 1.6-1.1 2.2-3.6l12.5-65.9h.2l2 66c0 2.2.4 3.5 1.3 3.5h3c.8 0 1-1.1 1-3.1v-.5L408 3.6c0-2.3-.7-3.4-1.3-3.6h-5.3c-1.2 0-1.8 1.3-2.3 3.6L387 67.3h-.4L374 3c-.4-2-1-2.9-2.2-3.1h-4.4c-1.1 0-1.6 1.3-1.6 3.6l-2.2 74.3v.5c0 2.2.4 3.1 1.1 3.1zm55 0h3.4c.7 0 1.1 0 1.3-.7l.7-2.2 2.9-16.2.4-.5h17.8v.5l2.7 16.2c.4 2 1 3 2.2 3h4.2c.4 0 .7-.8.7-1.9v-.4l-.3-.7-13.3-75.3c-.2-2-.9-2.9-2-3h-5.3c-.9 0-1.6 1-2 3l-14 75v1.4c0 1.1.2 1.8.7 1.8zM430 57.2c-.5 0-.7 0-.7-.6V56l8.2-48h.3l7.5 48.5v.4l-15.3.2zm42.2 19.2c-.5 0-.7-.5-.7-1.1v-69c0-1 0-1.2.7-1.2h11c5.4 0 9.4 2.7 11.6 8.3a76 76 0 013.6 27.1c-.1 8.2-.7 16.4-1.8 24.5-.5 2.4-1.5 4.7-2.9 6.7a9.6 9.6 0 01-4.4 3.6c-1.8.6-3.8 1-6.5 1h-10.6zm-5.8 5.1h16.7c3.3 0 6-.2 8.2-.9 2.2-.6 4.4-2 6.2-3.5 1.8-1.8 3.1-4.3 4.2-7.4 1.1-2.9 1.8-6.9 2.2-11.8 1.2-11.2 1.2-22.6 0-33.8-.6-4.7-1.5-8.5-2.6-11.6-1-2.8-2.5-5.3-4.5-7.4a15.3 15.3 0 00-6-4c-2.2-.7-4.4-1.1-7.3-1.1h-17.1l-.9.2-.4 1.6v77.5l.2 1.8 1.1.4zm50.8 0h26.2l1.2-.2v-4.5l-.5-.4H522V43.6c0-.4.2-.9.5-1.3h18l1-.2.3-1.6V39l-.3-1.6-1-.2h-18v-.5l-.5-.4V6.9c0-1.1.2-1.6.7-1.6h21.7l.3-.4.2-1.3V2l-.2-1.6-1.2-.2h-26.2c-.4 0-.8 0-1 .5l-.3 1.5v78.6l.7.7h.6z" fill="#383838"/>
  </g>
  <defs>
    <clipPath id="clip0">
      <path fill="#fff" d="M0 0h159v160H0z"/>
    </clipPath>
    <clipPath id="clip1">
      <path fill="#fff" transform="translate(170 96.6)" d="M0 0h375v63.4H0z"/>
    </clipPath>
    <clipPath id="clip2">
      <path fill="#fff" transform="translate(170)" d="M0 0h375v81.5H0z"/>
    </clipPath>
  </defs>
</svg>
